<?xml version="1.0" standalone="no"?>
<!DOCTYPE svg PUBLIC "-//W3C//DTD SVG 20010904//EN"
 "http://www.w3.org/TR/2001/REC-SVG-20010904/DTD/svg10.dtd">
<svg version="1.0" xmlns="http://www.w3.org/2000/svg"
 width="612.000000pt" height="612.000000pt" viewBox="0 0 612.000000 612.000000"
 preserveAspectRatio="xMidYMid meet">

<g transform="translate(0.000000,612.000000) scale(0.100000,-0.100000)"
fill="#000000" stroke="none">
<path d="M3000 5173 c-139 -15 -318 -69 -438 -134 -179 -96 -323 -248 -407
-433 -47 -102 -66 -185 -72 -316 -9 -195 29 -338 166 -625 69 -143 154 -288
211 -360 30 -38 31 -41 13 -52 -10 -7 -62 -42 -116 -78 -184 -122 -385 -295
-463 -398 -88 -118 -159 -291 -169 -416 -10 -115 -16 -151 -25 -151 -5 0 -24
30 -41 68 -34 70 -40 116 -25 215 6 38 4 47 -8 47 -21 0 -52 -44 -71 -100 -11
-33 -21 -47 -30 -44 -21 9 -28 -70 -22 -240 9 -240 47 -360 193 -612 63 -110
76 -141 52 -131 -7 3 -21 8 -31 12 -73 29 116 -169 238 -250 151 -100 339
-182 480 -210 197 -39 479 -47 609 -16 106 25 265 93 293 126 12 13 48 46 80
72 98 79 352 323 336 323 -4 0 -30 -7 -57 -15 -87 -27 -73 -12 56 59 62 34 67
39 62 64 -4 21 4 39 35 81 61 81 56 91 -19 37 -83 -60 -150 -88 -150 -63 0 8
8 21 17 28 28 24 72 90 67 102 -2 7 17 30 42 51 39 33 50 37 65 28 10 -7 89
-69 175 -139 214 -175 585 -456 664 -503 36 -22 82 -46 103 -55 l39 -16 -7 32
c-18 83 -53 137 -125 194 -39 31 -69 59 -66 62 3 3 12 0 21 -7 30 -25 23 -4
-20 60 -44 67 -123 138 -275 248 -47 34 -119 92 -160 130 -70 65 -74 70 -57
86 16 16 15 21 -19 89 -30 59 -34 74 -24 90 10 17 7 24 -19 51 -17 18 -31 35
-31 39 0 4 23 44 52 90 28 45 78 136 110 202 70 145 77 185 21 133 -13 -12
-25 -19 -28 -17 -3 3 9 59 25 125 33 130 38 204 23 356 -9 91 -20 129 -30 101
-2 -6 -15 -23 -29 -38 -26 -28 -39 -25 -46 10 -2 11 -8 -11 -12 -50 -20 -185
-60 -353 -117 -490 -32 -77 -125 -235 -138 -235 -14 0 -406 387 -436 430 -19
27 -25 47 -21 63 3 15 -2 35 -18 58 -12 19 -26 45 -29 59 -6 24 -26 57 -102
164 -19 26 -35 51 -35 55 0 3 31 26 67 51 246 166 450 391 552 611 54 116 75
209 69 309 -3 45 -1 83 4 86 13 8 9 133 -7 209 -20 94 -72 199 -130 263 -26
29 -46 55 -43 57 12 12 101 -60 159 -128 66 -78 93 -97 112 -78 30 30 -85 214
-205 326 -145 135 -301 209 -509 239 -97 15 -241 18 -329 9z m-337 -153 c-45
-21 -108 -56 -140 -78 -65 -45 -176 -154 -224 -221 -42 -59 -99 -180 -99 -210
0 -23 1 -24 20 -6 25 22 25 22 0 -79 -11 -45 -21 -121 -22 -168 -3 -86 -18
-114 -18 -35 -1 36 -2 39 -12 23 -20 -36 -4 -201 31 -304 48 -143 201 -436
248 -473 13 -11 13 -7 -3 16 -32 47 -36 55 -26 55 11 0 96 -129 131 -197 20
-41 20 -43 3 -52 -27 -15 -74 38 -173 194 -103 163 -148 257 -193 410 -20 66
-45 141 -56 167 -24 56 -25 115 -5 269 28 214 86 341 214 472 117 121 228 198
351 243 67 24 54 12 -27 -26z m672 -215 c93 -26 234 -99 302 -157 83 -72 159
-167 193 -241 15 -34 37 -73 48 -87 19 -25 19 -27 1 -135 -34 -204 -62 -267
-179 -410 -62 -75 -232 -245 -245 -245 -5 0 26 35 68 79 42 43 77 82 77 86 0
4 -37 -28 -82 -70 -123 -114 -278 -225 -314 -225 -6 0 -23 18 -37 39 -15 22
-67 83 -116 135 -115 122 -193 237 -306 451 -26 50 -60 104 -76 120 -15 17
-35 47 -43 67 -43 103 11 263 130 383 42 43 51 57 47 79 -3 14 1 36 10 49 20
31 127 87 185 97 69 13 268 4 337 -15z m-419 -1593 c-8 -7 -25 8 -37 31 -11
21 -10 21 15 -2 14 -14 24 -26 22 -29z m-208 -104 c7 -7 12 -16 12 -20 0 -15
-15 -8 -28 12 -13 22 -3 27 16 8z m-68 -47 c5 -11 10 -22 10 -24 0 -3 -52 -43
-115 -91 -268 -201 -354 -290 -429 -446 -43 -88 -52 -101 -54 -77 -2 20 12 56
45 115 27 48 54 98 60 112 19 44 82 108 207 212 66 56 149 128 183 160 34 32
66 58 72 58 6 0 15 -9 21 -19z m494 -93 c58 -64 68 -93 15 -42 -44 42 -92 104
-81 104 6 0 35 -28 66 -62z m-459 -95 c-47 -35 -85 -66 -85 -69 0 -6 4 -4 103
63 l79 52 26 -32 c129 -157 451 -484 525 -533 21 -14 47 -40 58 -59 11 -19 65
-73 120 -121 54 -47 99 -90 99 -94 0 -16 -210 -150 -305 -195 -185 -89 -433
-155 -582 -155 -35 0 -89 6 -121 14 -31 8 -100 24 -152 36 -222 49 -323 146
-361 344 -13 70 -11 203 5 261 16 63 57 144 85 169 28 25 27 14 -4 -38 -44
-75 -80 -216 -56 -216 6 0 11 9 11 20 0 34 39 125 81 191 77 119 228 258 419
387 97 66 106 70 122 55 16 -15 12 -20 -67 -80z m281 32 c15 -20 24 -39 20
-43 -8 -8 -66 52 -66 68 0 20 20 9 46 -25z m322 -127 c22 -29 39 -55 36 -57
-7 -7 -64 51 -80 82 -24 44 0 31 44 -25z m-122 -124 c87 -95 103 -117 81 -108
-8 3 -45 40 -83 82 -87 97 -99 112 -87 112 5 0 45 -39 89 -86z m-48 -40 c-4
-3 -12 5 -18 18 -12 22 -12 22 6 6 10 -10 15 -20 12 -24z m241 -113 c59 -71
38 -64 -35 12 -64 65 -94 105 -94 122 1 11 57 -48 129 -134z m814 -16 c-3 -9
-8 -14 -10 -11 -3 3 -2 9 2 15 9 16 15 13 8 -4z m-2172 -137 c-9 -31 -9 -31
-10 -6 -1 30 11 67 16 51 2 -6 0 -26 -6 -45z m-54 -265 c-3 -10 -5 -4 -5 12 0
17 2 24 5 18 2 -7 2 -21 0 -30z m157 -83 c3 -14 -3 -7 -14 15 -11 22 -19 47
-19 55 1 17 23 -32 33 -70z m21 -225 c39 -39 86 -83 105 -98 32 -24 30 -24
-23 5 -78 44 -151 116 -182 180 l-25 53 27 -35 c16 -19 60 -66 98 -105z m145
-24 c41 -36 31 -40 -24 -8 -40 22 -126 118 -126 139 0 6 26 -14 58 -44 31 -31
73 -70 92 -87z m1555 129 c-3 -5 -11 -10 -16 -10 -6 0 -7 5 -4 10 3 6 11 10
16 10 6 0 7 -4 4 -10z m-1425 -110 c13 -9 13 -10 0 -10 -8 0 -22 5 -30 10 -13
9 -13 10 0 10 8 0 22 -5 30 -10z"/>
</g>
</svg>
