<?xml version="1.0" standalone="no"?>
<!DOCTYPE svg PUBLIC "-//W3C//DTD SVG 20010904//EN"
 "http://www.w3.org/TR/2001/REC-SVG-20010904/DTD/svg10.dtd">
<svg version="1.0" xmlns="http://www.w3.org/2000/svg"
 width="512.000000pt" height="512.000000pt" viewBox="0 0 512.000000 512.000000"
 preserveAspectRatio="xMidYMid meet">
<metadata>
Created by potrace 1.14, written by Peter Selinger 2001-2017
</metadata>
<g transform="translate(0.000000,512.000000) scale(0.100000,-0.100000)"
fill="#000000" stroke="none">
<path d="M807 4688 c-164 -16 -303 -128 -358 -289 l-22 -64 -1 -1420 c0 -781
2 -1447 7 -1480 20 -162 140 -300 302 -350 56 -17 110 -18 835 -18 l776 -1
104 -310 c56 -171 106 -315 110 -321 8 -10 1745 -12 1780 -2 8 2 29 7 45 12
58 15 145 68 191 117 49 53 100 150 110 213 9 54 11 2812 2 2898 -17 165 -128
303 -289 358 l-64 22 -1004 1 c-881 1 -1005 3 -1012 16 -5 8 -26 76 -48 150
-106 366 -135 465 -138 469 -5 7 -1253 6 -1326 -1z m3532 -863 c51 -18 94 -57
120 -110 20 -39 20 -65 20 -1475 0 -1406 0 -1436 -20 -1474 -26 -53 -53 -81
-102 -105 -40 -20 -60 -21 -812 -21 l-770 0 213 213 212 212 -55 190 c-31 105
-69 238 -87 297 l-31 106 98 97 97 97 35 -33 c19 -19 148 -148 286 -287 l251
-252 73 72 c40 40 73 77 73 83 0 5 -126 134 -280 287 -154 153 -280 282 -280
286 0 5 15 26 33 48 150 181 277 407 339 599 l32 101 121 -1 c66 0 127 1 135
3 12 2 15 23 14 110 l0 107 -377 1 c-208 1 -383 4 -390 7 -8 3 -12 35 -11 111
l1 107 -111 -3 -111 -3 0 -107 0 -108 -45 -1 c-204 -3 -363 0 -370 8 -5 4 -49
150 -100 323 -50 173 -105 359 -121 414 -16 54 -29 103 -29 107 0 5 420 9 954
9 810 0 960 -2 995 -15z m-2559 -110 c107 -34 196 -82 283 -152 l68 -55 -38
-35 c-21 -20 -72 -68 -113 -107 -125 -117 -110 -110 -150 -75 -139 119 -375
136 -545 39 -172 -99 -268 -274 -259 -477 8 -201 139 -385 322 -453 196 -74
437 -22 549 118 38 47 86 138 80 149 -3 5 -104 8 -224 8 -120 -1 -224 1 -230
3 -10 3 -13 45 -13 166 l0 162 420 0 c231 0 420 -2 421 -5 0 -3 3 -15 6 -26
10 -42 8 -203 -4 -275 -60 -356 -290 -601 -631 -672 -138 -28 -322 -21 -442
17 -154 49 -301 141 -395 247 -43 49 -135 180 -135 193 0 3 -8 24 -19 48 -33
75 -55 150 -66 232 -7 47 -7 189 -1 225 3 14 7 41 10 60 27 176 164 399 321
518 175 133 330 182 560 178 120 -3 152 -7 225 -31z m1770 -967 c0 -17 -52
-143 -89 -217 -65 -130 -217 -351 -241 -351 -13 0 -134 169 -186 260 -26 47
-49 87 -51 89 -2 2 -49 5 -105 5 l-103 1 -32 95 c-17 52 -32 102 -32 110 -1
14 49 15 419 16 231 0 420 -4 420 -8z m-606 -578 c22 -30 59 -79 83 -109 l43
-53 -57 -54 c-31 -30 -57 -53 -59 -52 -4 5 -124 422 -124 432 0 6 17 -16 37
-49 20 -33 55 -85 77 -115z"/>
</g>
</svg>
